# xmcd CD database file
#
# Track frame offsets:
#	150
#	21002
#	43950
#	61810
#	84587
#	104902
#	125785
#	148725
#	166627
#	189447
#
# Disc length: 2792 seconds
#
# Revision: 0
# Processed by: cddbd v1.5.1PL0 Copyright (c) Steve Scherf et al.
# Submitted via: CDex 1.51
#
DISCID=8c0ae60a
DTITLE=幸福の科学 - 未来へ２０１４
DYEAR=2005
DGENRE=Vocal
TTITLE0=同じ時代
TTITLE1=輝ける光のなかで
TTITLE2=For the Sunrise
TTITLE3=女神の理想
TTITLE4=希望の未来へ
TTITLE5=同じ時代(カラオケ)
TTITLE6=輝ける光のなかで(カラオケ)
TTITLE7=For the Sunrise(カラオケ)
TTITLE8=女神の理想(カラオケ)
TTITLE9=希望の未来へ(カラオケ)
EXTD=YEAR: 2005
EXTT0=
EXTT1=
EXTT2=
EXTT3=
EXTT4=
EXTT5=
EXTT6=
EXTT7=
EXTT8=
EXTT9=
PLAYORDER=
